<mxfile host="drawio-plugin" modified="2022-10-14T22:20:19.436Z" agent="5.0 (Windows NT 6.2; Win64; x64) AppleWebKit/537.36 (KHTML, like Gecko) Chrome/97.0.4692.45 Safari/537.36" etag="ntcTwXDiqJRsrSRm2_V0" version="15.5.4" type="embed"><diagram id="O34qwh41oMZcCSXkgeVP" name="Страница 1"><mxGraphModel dx="903" dy="743" grid="1" gridSize="10" guides="1" tooltips="1" connect="1" arrows="1" fold="1" page="1" pageScale="1" pageWidth="827" pageHeight="1169" math="0" shadow="0"><root><mxCell id="0"/><mxCell id="1" parent="0"/><mxCell id="gVLe-O_-bKpCJnk0oeFe-1" value="UserWallet" style="swimlane;fontStyle=0;childLayout=stackLayout;horizontal=1;startSize=30;horizontalStack=0;resizeParent=1;resizeParentMax=0;resizeLast=0;collapsible=1;marginBottom=0;" parent="1" vertex="1"><mxGeometry x="110" y="200" width="140" height="120" as="geometry"/></mxCell><mxCell id="gVLe-O_-bKpCJnk0oeFe-2" value="id" style="text;strokeColor=none;fillColor=none;align=left;verticalAlign=middle;spacingLeft=4;spacingRight=4;overflow=hidden;points=[[0,0.5],[1,0.5]];portConstraint=eastwest;rotatable=0;" parent="gVLe-O_-bKpCJnk0oeFe-1" vertex="1"><mxGeometry y="30" width="140" height="30" as="geometry"/></mxCell><mxCell id="gVLe-O_-bKpCJnk0oeFe-3" value="user_id" style="text;strokeColor=none;fillColor=none;align=left;verticalAlign=middle;spacingLeft=4;spacingRight=4;overflow=hidden;points=[[0,0.5],[1,0.5]];portConstraint=eastwest;rotatable=0;" parent="gVLe-O_-bKpCJnk0oeFe-1" vertex="1"><mxGeometry y="60" width="140" height="30" as="geometry"/></mxCell><mxCell id="gVLe-O_-bKpCJnk0oeFe-9" value="balacnce" style="text;strokeColor=none;fillColor=none;align=left;verticalAlign=middle;spacingLeft=4;spacingRight=4;overflow=hidden;points=[[0,0.5],[1,0.5]];portConstraint=eastwest;rotatable=0;" parent="gVLe-O_-bKpCJnk0oeFe-1" vertex="1"><mxGeometry y="90" width="140" height="30" as="geometry"/></mxCell><mxCell id="gVLe-O_-bKpCJnk0oeFe-5" value="Tranasct-management" style="text;html=1;strokeColor=none;fillColor=none;align=center;verticalAlign=middle;whiteSpace=wrap;rounded=0;" parent="1" vertex="1"><mxGeometry x="170" y="50" width="330" height="130" as="geometry"/></mxCell><mxCell id="gVLe-O_-bKpCJnk0oeFe-14" value="Exchange" style="swimlane;fontStyle=0;childLayout=stackLayout;horizontal=1;startSize=30;horizontalStack=0;resizeParent=1;resizeParentMax=0;resizeLast=0;collapsible=1;marginBottom=0;" parent="1" vertex="1"><mxGeometry x="440" y="200" width="140" height="180" as="geometry"/></mxCell><mxCell id="gVLe-O_-bKpCJnk0oeFe-15" value="id" style="text;strokeColor=none;fillColor=none;align=left;verticalAlign=middle;spacingLeft=4;spacingRight=4;overflow=hidden;points=[[0,0.5],[1,0.5]];portConstraint=eastwest;rotatable=0;" parent="gVLe-O_-bKpCJnk0oeFe-14" vertex="1"><mxGeometry y="30" width="140" height="30" as="geometry"/></mxCell><mxCell id="gVLe-O_-bKpCJnk0oeFe-16" value="out_transaction_id" style="text;strokeColor=none;fillColor=none;align=left;verticalAlign=middle;spacingLeft=4;spacingRight=4;overflow=hidden;points=[[0,0.5],[1,0.5]];portConstraint=eastwest;rotatable=0;" parent="gVLe-O_-bKpCJnk0oeFe-14" vertex="1"><mxGeometry y="60" width="140" height="30" as="geometry"/></mxCell><mxCell id="gVLe-O_-bKpCJnk0oeFe-17" value="wallet_id" style="text;strokeColor=none;fillColor=none;align=left;verticalAlign=middle;spacingLeft=4;spacingRight=4;overflow=hidden;points=[[0,0.5],[1,0.5]];portConstraint=eastwest;rotatable=0;" parent="gVLe-O_-bKpCJnk0oeFe-14" vertex="1"><mxGeometry y="90" width="140" height="30" as="geometry"/></mxCell><mxCell id="gVLe-O_-bKpCJnk0oeFe-18" value="amount" style="text;strokeColor=none;fillColor=none;align=left;verticalAlign=middle;spacingLeft=4;spacingRight=4;overflow=hidden;points=[[0,0.5],[1,0.5]];portConstraint=eastwest;rotatable=0;" parent="gVLe-O_-bKpCJnk0oeFe-14" vertex="1"><mxGeometry y="120" width="140" height="30" as="geometry"/></mxCell><mxCell id="gVLe-O_-bKpCJnk0oeFe-25" value="status" style="text;strokeColor=none;fillColor=none;align=left;verticalAlign=middle;spacingLeft=4;spacingRight=4;overflow=hidden;points=[[0,0.5],[1,0.5]];portConstraint=eastwest;rotatable=0;" parent="gVLe-O_-bKpCJnk0oeFe-14" vertex="1"><mxGeometry y="150" width="140" height="30" as="geometry"/></mxCell><mxCell id="gVLe-O_-bKpCJnk0oeFe-20" value="Transaction" style="swimlane;fontStyle=0;childLayout=stackLayout;horizontal=1;startSize=30;horizontalStack=0;resizeParent=1;resizeParentMax=0;resizeLast=0;collapsible=1;marginBottom=0;" parent="1" vertex="1"><mxGeometry x="180" y="500" width="140" height="210" as="geometry"/></mxCell><mxCell id="gVLe-O_-bKpCJnk0oeFe-21" value="id" style="text;strokeColor=none;fillColor=none;align=left;verticalAlign=middle;spacingLeft=4;spacingRight=4;overflow=hidden;points=[[0,0.5],[1,0.5]];portConstraint=eastwest;rotatable=0;" parent="gVLe-O_-bKpCJnk0oeFe-20" vertex="1"><mxGeometry y="30" width="140" height="30" as="geometry"/></mxCell><mxCell id="gVLe-O_-bKpCJnk0oeFe-22" value="from_wallet_id" style="text;strokeColor=none;fillColor=none;align=left;verticalAlign=middle;spacingLeft=4;spacingRight=4;overflow=hidden;points=[[0,0.5],[1,0.5]];portConstraint=eastwest;rotatable=0;" parent="gVLe-O_-bKpCJnk0oeFe-20" vertex="1"><mxGeometry y="60" width="140" height="30" as="geometry"/></mxCell><mxCell id="gVLe-O_-bKpCJnk0oeFe-23" value="to_wallet_id" style="text;strokeColor=none;fillColor=none;align=left;verticalAlign=middle;spacingLeft=4;spacingRight=4;overflow=hidden;points=[[0,0.5],[1,0.5]];portConstraint=eastwest;rotatable=0;" parent="gVLe-O_-bKpCJnk0oeFe-20" vertex="1"><mxGeometry y="90" width="140" height="30" as="geometry"/></mxCell><mxCell id="gVLe-O_-bKpCJnk0oeFe-24" value="amount" style="text;strokeColor=none;fillColor=none;align=left;verticalAlign=middle;spacingLeft=4;spacingRight=4;overflow=hidden;points=[[0,0.5],[1,0.5]];portConstraint=eastwest;rotatable=0;" parent="gVLe-O_-bKpCJnk0oeFe-20" vertex="1"><mxGeometry y="120" width="140" height="30" as="geometry"/></mxCell><mxCell id="gVLe-O_-bKpCJnk0oeFe-31" value="status" style="text;strokeColor=none;fillColor=none;align=left;verticalAlign=middle;spacingLeft=4;spacingRight=4;overflow=hidden;points=[[0,0.5],[1,0.5]];portConstraint=eastwest;rotatable=0;" parent="gVLe-O_-bKpCJnk0oeFe-20" vertex="1"><mxGeometry y="150" width="140" height="30" as="geometry"/></mxCell><mxCell id="gVLe-O_-bKpCJnk0oeFe-38" value="transaction_type" style="text;strokeColor=none;fillColor=none;align=left;verticalAlign=middle;spacingLeft=4;spacingRight=4;overflow=hidden;points=[[0,0.5],[1,0.5]];portConstraint=eastwest;rotatable=0;" parent="gVLe-O_-bKpCJnk0oeFe-20" vertex="1"><mxGeometry y="180" width="140" height="30" as="geometry"/></mxCell><mxCell id="gVLe-O_-bKpCJnk0oeFe-39" value="" style="edgeStyle=entityRelationEdgeStyle;fontSize=12;html=1;endArrow=ERzeroToMany;startArrow=ERmandOne;rounded=0;entryX=0;entryY=0.5;entryDx=0;entryDy=0;" parent="1" target="gVLe-O_-bKpCJnk0oeFe-18" edge="1"><mxGeometry width="100" height="100" relative="1" as="geometry"><mxPoint x="250" y="280" as="sourcePoint"/><mxPoint x="350" y="180" as="targetPoint"/></mxGeometry></mxCell><mxCell id="gVLe-O_-bKpCJnk0oeFe-40" value="" style="edgeStyle=entityRelationEdgeStyle;fontSize=12;html=1;endArrow=ERzeroToMany;startArrow=ERmandOne;rounded=0;exitX=0.671;exitY=1.1;exitDx=0;exitDy=0;entryX=0;entryY=0;entryDx=0;entryDy=0;exitPerimeter=0;" parent="1" source="gVLe-O_-bKpCJnk0oeFe-9" target="gVLe-O_-bKpCJnk0oeFe-20" edge="1"><mxGeometry width="100" height="100" relative="1" as="geometry"><mxPoint x="290" y="390" as="sourcePoint"/><mxPoint x="390" y="290" as="targetPoint"/></mxGeometry></mxCell><mxCell id="gVLe-O_-bKpCJnk0oeFe-42" value="" style="edgeStyle=entityRelationEdgeStyle;fontSize=12;html=1;endArrow=ERzeroToMany;startArrow=ERmandOne;rounded=0;exitX=1;exitY=0.5;exitDx=0;exitDy=0;entryX=1;entryY=0.5;entryDx=0;entryDy=0;" parent="1" source="gVLe-O_-bKpCJnk0oeFe-9" target="gVLe-O_-bKpCJnk0oeFe-21" edge="1"><mxGeometry width="100" height="100" relative="1" as="geometry"><mxPoint x="290" y="390" as="sourcePoint"/><mxPoint x="390" y="290" as="targetPoint"/></mxGeometry></mxCell></root></mxGraphModel></diagram></mxfile>